<svg width="129" height="116" xmlns="http://www.w3.org/2000/svg" xmlns:xlink="http://www.w3.org/1999/xlink"><defs><path d="M1.55 63.303a11.642 11.642 0 0 1 0-11.606L28.006 5.803A11.577 11.577 0 0 1 38.044 0h52.912a11.59 11.59 0 0 1 10.038 5.803l26.456 45.894a11.642 11.642 0 0 1 0 11.606l-26.456 45.894A11.577 11.577 0 0 1 90.956 115H38.044c-4.142 0-7.972-2.22-10.038-5.803L1.55 63.303Z" id="a"/></defs><g fill="none" fill-rule="evenodd"><g transform="translate(0 .055)"><mask id="b" fill="#fff"><use xlink:href="#a"/></mask><use fill="#4386FB" xlink:href="#a"/><path fill="#4079DB" opacity=".904" mask="url(#b)" d="m123.457 72.986-29.58-29.59-15.852 5.654 5.875 5.876.363 2.036L72.492 45.2l-10.461 1.371-3.477 7.367-8.476-8.486L37.581 47.7l-2.62 23.704 43.94 43.95 19.421-.181z"/></g><g fill="#FFF"><path d="M40.444 43.522c-2.772 0-5.543 2.771-5.543 5.543v22.413h5.543V60.392h5.542v11.086h5.543V49.065c0-2.772-2.771-5.543-5.543-5.543h-5.542Zm0 11.327v-5.794h5.542v5.794h-5.542ZM63.12 43.522c-2.772 0-5.544 2.771-5.544 5.543v22.413h5.543V60.392h5.543c2.772 0 5.543-2.771 5.543-5.543v-5.794c0-2.772-2.771-5.543-5.543-5.543H63.12v.01Zm0 11.327v-5.794h5.542v5.794H63.12ZM83.265 49.065v16.87h-5.29v5.543h16.124v-5.543h-5.29v-16.87h5.29v-5.543H77.974v5.543z"/></g></g></svg>