<svg version="1.1" id="Layer_1" xmlns="http://www.w3.org/2000/svg" x="0" y="0" viewBox="0 0 1781 2466.8" style="enable-background:new 0 0 1781 2466.8" xml:space="preserve"><style>.st0{fill:#ffa000}</style><path class="st0" d="m1169.4 891-246.7 229.7-229-462.1L812 392.9c29.9-53 78.8-53.7 108.7 0L1169.4 891z"/><path d="M922.8 1120.6 0 1978.9 693.8 658.6l229 462z" style="fill:#f57f17"/><path d="M1439.9 539.7c44.2-42.1 89.7-27.9 101.2 31.9L1781 1967.3 985.3 2445c-27.9 15.6-101.9 21.7-101.9 21.7s-67.3-8.2-93.1-22.4L0 1978.9 1439.9 539.7z" style="fill:#ffca28"/><path class="st0" d="M693.8 658.6 0 1978.9 309.2 49.1c11.6-59.8 45.5-65.9 76.1-12.9l308.5 622.4z"/></svg>