<svg width="200" height="200" fill="none" xmlns="http://www.w3.org/2000/svg"><path opacity=".2" d="M144 8H56A48 48 0 0 0 8 56v88a48 48 0 0 0 48 48h88a48 48 0 0 0 48-48V56a47.999 47.999 0 0 0-48-48Zm-44 132a40.002 40.002 0 0 1-39.231-47.804A40 40 0 1 1 100 140Z" fill="#8444DF"/><path d="M100 52a48 48 0 1 0 0 96 48 48 0 0 0 0-96Zm0 80a32.001 32.001 0 0 1-22.627-54.627A32 32 0 0 1 132 100a32.095 32.095 0 0 1-9.402 22.598A32.095 32.095 0 0 1 100 132Z" fill="#8444DF"/><path d="M144 0H56A56 56 0 0 0 0 56v88a56 56 0 0 0 56 56h88a56 56 0 0 0 56-56V56a56 56 0 0 0-56-56Zm40 144a40.001 40.001 0 0 1-40 40H56a40.003 40.003 0 0 1-40-40V56a40 40 0 0 1 40-40h88a39.998 39.998 0 0 1 40 40v88Z" fill="#8444DF"/><path d="M152 60c6.627 0 12-5.373 12-12s-5.373-12-12-12-12 5.373-12 12 5.373 12 12 12Z" fill="#8444DF"/></svg>